<svg width="699" height="720" viewBox="0 0 699 720" fill="none" xmlns="http://www.w3.org/2000/svg">
<path d="M361.11 0.0619093C366.977 -0.0274759 373.395 -0.0812695 379.226 0.348704C384.38 0.802679 389.61 1.8242 394.779 1.97136C411.664 2.45233 428.575 1.00302 445.347 3.4575C449.955 3.9558 454.511 4.15352 459.027 5.27941C464.523 6.71232 469.557 9.29043 474.809 11.4523C487.12 16.522 500.494 17.5129 512.481 23.3604C514.629 24.4091 516.957 25.219 519.109 26.307C527.734 30.6269 535.521 36.6529 544.117 40.9562C553.397 45.567 561.181 52.481 569.758 58.2905C575.618 62.262 581.435 65.3454 587.335 69.047C596.423 74.7152 605.117 80.9863 613.363 87.8183C617.264 91.0588 622.537 95.8677 626.143 99.4851C629.694 103.046 631.669 105.896 635.81 109.5C644.384 116.96 653.922 123.103 660.107 132.833C665.1 140.344 664.299 149.594 665.505 158.148C665.978 159.422 667.06 161.016 667.716 162.216C669.726 165.885 669.879 167.991 670.119 171.999C670.495 178.239 670.185 181.883 667.009 187.378C663.713 193.578 656.071 206.635 648.379 207.736C643.604 208.419 630.59 210.543 625.823 210.723C614.441 210.546 602.837 204.227 594.307 197.055C589.841 193.299 588.73 189.058 582.327 186.577C579.993 185.671 575.178 181.503 573.51 179.577C567.926 173.13 562.918 165.847 557.273 159.427C554.85 156.728 547.406 152.387 544.008 149.645C540.733 147.002 537.277 142.543 534.847 140.619C531.66 138.095 522.504 132.816 518.661 130.87C506.74 124.828 493.384 118.343 480.48 115.038C470.675 112.527 458.459 112.298 448.432 111.401C431.875 109.92 415.142 108.105 398.497 109.005C395.372 109.174 391.18 110.425 388.019 110.913C383.214 111.455 377.402 113.106 372.645 113.427C360.811 114.225 351.828 114.423 340.339 117.928C330.026 121.075 322.369 124.373 313.117 130.145C309.132 132.631 304.391 134.603 300.421 137.193C295.414 140.313 290.836 144.343 285.211 146.626C276.253 150.262 266.488 153.958 257.319 157.019C249.266 159.708 240.347 162.21 232.572 165.615C229.606 166.913 220.459 171.297 218.181 173.111C214.493 176.047 209.206 183.314 205.788 187.201C203.446 190.389 199.033 193.764 196.888 196.932C190.741 206.012 183.325 214.226 176.768 222.863C174.72 225.56 169.969 234.125 168.667 237.259C165.238 245.506 161.951 252.283 156.719 259.66C154.698 262.665 153.09 269.281 151.212 272.863C146.302 282.226 141.364 291.431 137.834 301.433C135.91 307.506 131.246 315.055 130.162 321.206C128.173 332.489 124.336 344.812 123.286 356.024C122.692 362.362 124.38 368.747 124.732 374.801C125.255 383.784 127.003 391.259 128.996 399.891C130.087 405.348 128.332 413.879 129.573 419.066C132.756 432.365 135.596 445.868 138.647 459.178C140.041 465.261 143.98 472.324 145.4 478.502C147.501 487.641 147.557 497.068 150.304 506.149C151.63 510.378 153.468 512.877 155.755 516.414C162.768 527.251 174.166 531.243 184.787 537.362C192.977 542.386 200.736 548.042 209.816 552.14C215.537 554.723 221.518 556.202 227.127 559.214C231.183 561.003 236.011 565.541 239.902 567.155C249.967 571.326 258.188 576.422 267.142 582.49C270.052 584.461 276.064 586.428 279.423 588.111C290.305 593.553 301.41 597.359 313.498 599.002C321.806 600.233 326.157 600.084 334.467 598.798C336.877 598.663 340.529 597.545 342.834 597.651C361.343 598.514 379.481 597.137 397.834 600.772C401.156 601.428 406.102 600.587 409.777 601.37C414.261 602.331 418.744 603.985 423.29 604.692C444.615 605.395 468.934 600.488 489.535 595.327C496.222 593.651 505.914 588.453 511.949 585.182C517.609 582.111 526.325 576.917 530.921 572.491C533.329 569.967 535.131 566.605 537.058 563.811C540.751 558.446 543.031 552.971 545.428 546.946C546.324 544.691 547.956 542.378 548.986 540.142C554.399 528.391 560.54 516.971 565.726 505.136C570.031 495.903 574.253 488.377 577.159 478.265C580.251 467.512 581.661 456.668 582.349 445.548C582.655 440.608 584.556 433.851 584.782 428.653C585.478 415.391 584.975 402.74 582.819 389.619C581.555 381.915 580.226 372.12 575.848 365.393C568.236 353.704 557.91 343.657 548.407 333.565C540.832 325.518 533.616 316.939 525.13 309.751C521.459 306.684 510.98 300.051 506.485 297.85C489.975 289.766 468.482 291.094 450.588 291.091C445.201 291.09 433.568 290.833 428.757 291.616C419.975 293.045 410.334 296.102 401.32 297.861C394.764 299.141 387.822 299.825 381.561 301.547C376.509 302.937 372.011 306.135 367.447 308.59C357.344 314.025 344.254 321.107 338.69 331.66C334.059 340.445 335.097 354.645 332.724 364.679C330.692 373.268 327.219 379.912 326.649 388.672C326.391 394.26 325.288 401.793 327.502 407.053C332.962 420.013 339.14 433.061 347.073 444.713C348.824 447.285 351.167 451.98 353.257 454.027C358.666 459.327 366.016 464.023 372.328 468.263C375.118 469.884 379.714 469.683 382.486 470.528C389.628 472.71 394.982 472.565 402.212 472.696C412.585 472.885 421.461 472.222 431.175 468.051C434.249 466.729 437.633 465.633 440.467 463.735C447.063 459.08 456.503 449.048 459.752 441.879C466.312 427.389 465.805 418.713 459.982 404.008C458.277 399.706 456.5 397.742 453.018 394.872C437.356 382.862 414.064 397.032 397.037 390.159C386.471 385.893 380.49 373.643 386.106 363.138C392.065 351.993 405.829 341.86 417.44 337.15C421.786 335.387 426.44 335.281 431.026 335.079C440.907 334.212 447.995 333.844 457.705 336.405C459.865 337.01 465.354 337.826 467.098 339.244C471.706 342.994 481.977 347.58 485.834 351.172C496.611 361.211 505.123 374.59 512.404 387.299C514.56 391.058 516.097 396.347 517.638 400.452C519.525 405.982 521.819 413.799 522.416 419.412C524.026 434.478 523.724 455.288 516.895 468.988C514.713 473.158 511.756 476.979 509.009 480.786C503.896 487.874 498.575 494.748 493.319 501.72C489.862 506.309 485.878 511.292 483.609 516.578C480.316 524.256 483.893 541.329 482.214 544.181C480.473 547.143 474.481 548.727 471.312 549.445C455.239 553.098 432.876 552.483 416.351 552.118C410.739 551.998 405.057 552.22 399.473 551.568C394.793 551.018 390.335 549.062 385.658 548.476C382.493 548.075 379.299 548.108 376.141 547.576C372.769 547.008 369.454 546.021 366.063 545.565C362.927 545.143 359.664 545.158 356.572 544.458C351.444 543.3 347.004 540.367 341.754 539.337C335.806 538.171 329.785 537.526 323.829 536.441C312.351 534.354 295.975 530.456 286.165 524.133C273.996 516.261 264.43 504.965 258.674 491.663C257.237 488.37 256.248 484.851 254.969 481.493C253.162 476.743 250.876 471.898 249.974 466.875C248.871 460.733 250.127 453.572 247.834 447.773C245.197 441.1 240.653 435.275 237.001 429.16C234.935 425.703 232.746 421.969 231.367 418.17C230.269 415.15 229.594 411.985 228.527 408.951C226.999 404.605 225.135 400.401 224.188 395.87C223.682 393.448 223.36 391.055 223.319 388.581C223.226 382.924 223.992 377.409 224.239 371.785C224.584 363.947 223.811 355.158 225.93 347.551C228.404 338.674 235.79 332.647 239.725 324.581C241.249 321.456 241.9 317.936 243.323 314.758C245.731 309.378 249.145 304.434 251.168 298.874C252.622 294.874 253.078 290.682 254.181 286.597C255.629 281.232 259.061 274.985 262.134 270.336C267.77 261.807 280.671 251.867 288.095 244.42C293.763 238.734 299.436 231.968 305.982 227.257C308.891 225.164 312.172 223.419 315.239 221.558C318.541 219.554 321.949 217.382 325.569 216.006C328.043 215.067 330.818 214.986 333.34 214.154C338.692 212.388 343.646 210.117 349.205 208.873C361.132 206.202 379.849 208.381 392.324 208.937C400.741 209.312 408.914 211.438 417.375 210.582C427.369 209.572 436.97 206.576 446.301 202.992C452.173 200.738 457.942 198.239 464.068 196.781C468.544 195.715 491.188 199.775 496.291 201.013C499.219 201.724 501.627 204.414 504.267 205.816C507.137 207.342 510.663 207.316 513.584 208.798C516.221 210.137 518.545 212.089 521.062 213.633C524.551 215.773 528.426 217.493 532.098 219.312C536.654 221.569 541.596 222.962 546.113 225.276C568.48 236.743 584.95 249.249 603.496 266.112C607.207 269.485 610.689 273.105 614.401 276.483C618.498 280.212 622.883 283.674 626.864 287.522C629.647 290.21 632.098 293.242 634.743 296.063C636.961 298.429 639.401 300.667 641.353 303.259C646.991 310.731 652.677 318.663 657.474 326.693C660.249 331.342 662.518 336.341 665.414 340.901C668.448 345.679 672.308 349.883 675.127 354.821C677.047 358.186 678.118 362.02 679.837 365.491C680.966 367.779 682.674 369.705 683.96 371.895C687.649 378.196 687.504 390.974 689.19 398.478C690.272 403.283 692.053 407.953 693.386 412.695C694.617 417.088 695.44 421.583 696.504 426.02C697.396 429.739 698.725 433.596 698.485 437.465C698.299 440.503 696.606 443.694 695.553 446.531L690.654 459.95C688.473 465.764 686.109 470.74 685.905 477.049C685.624 485.612 686.422 494.289 685.486 502.802C684.892 508.174 679.993 511.977 678.125 516.866C675.885 522.442 675.63 528.332 673.878 534.055C671.343 543.099 666.393 546.968 662.107 555.422C658.621 561.378 657.536 568.16 654.735 574.356C653.453 577.198 651.122 580.166 649.348 582.774C645.443 588.165 637.343 597.144 631.348 600.306C620.458 606.054 615.526 613.602 607.287 622.256C603.383 626.361 597.952 629.636 594.146 634.35C590.074 639.391 586.396 644.793 582.601 650.064C579.319 654.358 573.251 659.811 569.438 663.869C568.054 665.341 562.477 668.699 560.514 670.233C557.954 672.233 554.952 674.713 552.326 676.589C539.356 685.67 525.862 693.975 511.912 701.464C508.099 703.468 503.816 704.695 500.05 706.465C488.198 712.035 474.951 717.441 461.916 719.287C458.747 719.735 447.547 719.677 443.701 719.586C437.953 719.448 425.887 720.023 420.755 719.08C411.689 717.419 402.923 714.975 393.409 714.658C385.892 714.41 378.221 714.658 370.678 714.57C344.375 714.377 318.141 715.528 291.954 712.625C279.107 711.201 270.449 710.793 258.524 704.983C255.586 703.555 250.854 702.593 247.62 701.165C235.432 695.789 223.145 690.719 211.118 684.967C206.437 682.76 201.483 680.035 196.851 678.053C188.086 674.48 179.122 674.757 170.096 672.189C161.472 669.737 160.191 666.382 154.135 661.002C146.77 654.457 139.989 647.204 132.467 640.928C128.814 637.879 123.574 635.089 119.483 632.565C115.774 630.35 111.58 628.693 108.044 626.125C101.734 621.502 96.2658 615.966 90.0824 610.993C83.1192 605.391 75.6159 601.366 69.0708 595.505C65.665 592.453 60.7323 586.038 57.769 582.257C52.2886 575.26 44.433 566.131 39.8263 558.529C36.0748 552.337 30.7998 541.759 27.705 535.224C23.7306 526.835 21.5414 513.839 18.3702 504.667C15.4104 496.107 12.0637 491.612 7.89124 483.795C5.37381 479.081 2.04376 471.239 1.33943 466.066C0.496617 459.881 0.83997 452.348 0.786611 445.977L0.835817 404.762C0.853555 384.309 -2.43792 368.128 3.9222 347.8C1.5022 342.141 1.2373 333.618 0.821977 327.434C0.219554 318.464 1.93242 309.711 3.12411 300.904C3.82845 297.58 3.31792 292.782 4.07251 289.608C5.67261 282.878 6.39428 275.504 8.01216 268.886C9.94596 260.974 13.8305 253.376 16.7883 245.811C18.369 241.768 19.7546 237.302 22.0858 233.665C23.6884 231.333 27.0866 229.043 28.9874 226.624C33.1305 221.351 36.7202 214.851 41.237 209.972C46.0421 204.782 51.0404 201.272 55.3841 195.516C60.9949 188.082 61.6039 181.298 64.8932 173.517C67.8521 166.519 72.0115 157.355 75.7911 150.787C77.6548 147.549 81.6438 142.627 83.8757 139.298C86.4606 135.441 90.0329 129.951 93.08 126.619C104.696 113.918 116.737 101.002 132.046 92.7234C139.172 88.8707 145.924 85.8929 153.329 82.7151C156.647 81.2912 160.446 78.6103 163.836 77.0862C170.038 74.2978 177.37 72.2186 183.649 69.8947C190.33 67.4217 197.618 68.0584 203.164 66.4382C214.048 63.2582 225.903 59.0489 236.549 55.0665C239.587 53.93 242.846 53.1497 245.935 51.9903C256.62 47.9802 267.129 42.5739 276.393 35.9211C282.234 31.7266 286.946 25.3514 291.788 20.1189C294.439 17.253 298.339 15.1601 301.47 13.0947C315.333 3.95074 330.298 1.26397 346.602 0.893998C350.946 0.79543 356.273 0.198196 361.11 0.0619093Z" fill="#EA712E"/>
</svg>
